<svg viewBox="0 0 24 31" xmlns="http://www.w3.org/2000/svg">
    <title>Logo</title>
    <path d="M19.7 1.268C19.7.544 19.188 0 18.34 0c-1.908 0-3.523 2.049-4.418 3.55-1.471 2.463-2.456 6.02-3.235 9.78-.116.56-.545 2.667-.545 2.667H8.254l-.123.652h1.896c-.398 2.261-1.202 6.353-1.711 8.603-.47 2.075-1.063 4.396-2.657 4.988.185-.215.262-.586.262-.83-.001-.602-.497-1.107-1.202-1.107-.867 0-1.367.622-1.373 1.31-.005.739.534 1.298 1.537 1.298 1.97 0 4.832-2.082 6.337-9.018.328-1.516 1.039-5.244 1.039-5.244h1.96l.121-.652h-1.958s.717-3.92 1.43-7.123c.91-4.092 1.932-7.164 3.51-8.11a1.294 1.294 0 0 0-.225.709c0 .711.492 1.203 1.23 1.2.734-.003 1.374-.544 1.374-1.405zm4.178 11.912c0-.519-.368-1.189-1.314-1.189-1.72 0-2.84 2.174-3.33 3.214.165-.741.269-1.368.269-1.853 0-.82-.444-1.281-1.136-1.281-1.588 0-2.766 2.214-2.926 2.541l.4.208c.46-.848.965-1.414 1.356-1.414.248 0 .403.209.333.808-.105.918-.846 3.958-1.383 6.14h1.922s.325-1.197.678-2.385c.737-2.473 1.754-4.278 2.581-4.879a1.22 1.22 0 0 0-.04.338c.004.57.398 1.15 1.193 1.15.9 0 1.397-.678 1.397-1.398zm-18.995.668c0 .63.459 1.096 1.193 1.096.76 0 1.407-.587 1.407-1.422 0-.898-.763-1.572-2.28-1.572C2.277 11.95 0 14.44 0 17.308c0 1.983 1.247 3.261 3.256 3.261 2.21 0 3.359-1.482 3.864-2.243l-.401-.237c-.26.39-1.253 1.641-2.65 1.641-1.244 0-1.887-.905-1.887-2.48 0-2.637 1.463-4.78 3.078-4.78.282 0 .523.053.647.122-.626.147-1.024.653-1.024 1.256z" fill="#412c26"></path>
</svg>